<?xml version="1.0" encoding="UTF-8"?>
<!DOCTYPE svg PUBLIC "-//W3C//DTD SVG 1.1//EN" "http://www.w3.org/Graphics/SVG/1.1/DTD/svg11.dtd">
<svg xmlns="http://www.w3.org/2000/svg" version="1.1" width="168px" height="148px" style="shape-rendering:geometricPrecision; text-rendering:geometricPrecision; image-rendering:optimizeQuality; fill-rule:evenodd; clip-rule:evenodd" xmlns:xlink="http://www.w3.org/1999/xlink">
<g><path style="opacity:1" fill="#010101" d="M -0.5,-0.5 C 55.5,-0.5 111.5,-0.5 167.5,-0.5C 167.5,48.8333 167.5,98.1667 167.5,147.5C 111.5,147.5 55.5,147.5 -0.5,147.5C -0.5,98.1667 -0.5,48.8333 -0.5,-0.5 Z"/></g>
<g><path style="opacity:1" fill="#7a7da5" d="M 66.5,6.5 C 70.197,12.4733 68.5303,15.64 61.5,16C 59.393,14.7365 58.393,12.9032 58.5,10.5C 59.9703,6.43055 62.6369,5.09721 66.5,6.5 Z"/></g>
<g><path style="opacity:1" fill="#4fa967" d="M 69.5,1.5 C 70.8333,1.5 72.1667,1.5 73.5,1.5C 73.5,2.5 73.5,3.5 73.5,4.5C 75.6208,4.32526 77.6208,4.65859 79.5,5.5C 80.3296,12.3334 77.3296,15.0001 70.5,13.5C 70.1667,9.5 69.8333,5.5 69.5,1.5 Z"/></g>
<g><path style="opacity:1" fill="#7d81a7" d="M 89.5,5.5 C 88.9054,8.65369 88.9054,11.6537 89.5,14.5C 83.3251,15.3225 80.3251,12.6559 80.5,6.5C 83.222,4.22666 86.222,3.89333 89.5,5.5 Z"/></g>
<g><path style="opacity:1" fill="#c54730" d="M 56.5,12.5 C 55.5,12.5 54.5,12.5 53.5,12.5C 53.3249,15.3289 54.6582,16.9955 57.5,17.5C 56.3315,19.2174 54.6648,19.8841 52.5,19.5C 52.4518,16.3648 50.7852,14.6981 47.5,14.5C 48.3094,12.9291 48.6427,11.2624 48.5,9.5C 51.024,9.04303 53.6907,9.04303 56.5,9.5C 56.5,10.5 56.5,11.5 56.5,12.5 Z"/></g>
<g><path style="opacity:1" fill="#2d2826" d="M 69.5,1.5 C 69.8333,5.5 70.1667,9.5 70.5,13.5C 77.3296,15.0001 80.3296,12.3334 79.5,5.5C 80.1667,5.5 80.5,5.83333 80.5,6.5C 80.3251,12.6559 83.3251,15.3225 89.5,14.5C 88.9054,11.6537 88.9054,8.65369 89.5,5.5C 91.7354,5.20528 93.7354,5.53862 95.5,6.5C 97.4559,8.14841 99.7892,8.81507 102.5,8.5C 102.663,10.8568 102.497,13.1902 102,15.5C 100.333,16.8333 98.6667,16.8333 97,15.5C 95.8118,16.5634 95.3118,17.8967 95.5,19.5C 91.2853,18.2532 86.952,17.4198 82.5,17C 81.6667,16.1667 80.8333,15.3333 80,14.5C 76.7482,17.4881 73.0815,18.1548 69,16.5C 66.573,18.7457 63.9063,19.4124 61,18.5C 59.1999,22.2581 56.3666,23.5915 52.5,22.5C 51.8939,25.3735 50.5605,27.7068 48.5,29.5C 47.1667,30.1667 46.1667,31.1667 45.5,32.5C 42.736,33.9475 41.0693,36.2809 40.5,39.5C 37.5299,39.7458 36.1966,41.4124 36.5,44.5C 34.2273,44.9568 32.894,46.2901 32.5,48.5C 30.8333,48.5 29.1667,48.5 27.5,48.5C 26.6128,52.2082 26.4461,55.8749 27,59.5C 26.1841,60.8228 25.0174,61.4894 23.5,61.5C 22.1196,60.2935 20.9529,60.6269 20,62.5C 19.0691,64.4595 18.2357,66.4595 17.5,68.5C 14.9135,69.48 12.2469,69.8134 9.5,69.5C 9.5,68.5 9.5,67.5 9.5,66.5C 8.17793,66.67 7.01127,66.3366 6,65.5C 4.46613,62.4052 4.29946,59.4052 5.5,56.5C 5.53686,61.5545 7.87019,63.5545 12.5,62.5C 11.7542,63.7362 11.4208,65.0695 11.5,66.5C 12.8333,66.5 14.1667,66.5 15.5,66.5C 17.2957,63.1041 18.2957,59.4374 18.5,55.5C 16.1417,55.2525 14.1417,55.9192 12.5,57.5C 11.7611,57.631 11.0944,57.4643 10.5,57C 11.3805,56.2917 12.0472,55.4584 12.5,54.5C 12.7148,52.8212 12.0481,51.8212 10.5,51.5C 12.0276,50.6908 13.6943,50.0241 15.5,49.5C 17.3467,54.0124 20.6801,56.679 25.5,57.5C 24.758,53.8751 24.5914,50.2084 25,46.5C 23.5557,44.8446 21.7224,44.178 19.5,44.5C 20.5676,43.5655 21.901,43.2322 23.5,43.5C 23.2155,41.5853 23.5489,39.9187 24.5,38.5C 23.9773,44.487 26.4773,46.487 32,44.5C 35.2086,38.3072 33.3753,35.3072 26.5,35.5C 28.1667,34.8333 29.8333,34.1667 31.5,33.5C 33.8201,35.2261 36.4867,35.8928 39.5,35.5C 40.6776,32.4773 40.6776,29.4773 39.5,26.5C 40.1667,26.5 40.8333,26.5 41.5,26.5C 43.296,28.9302 44.9626,28.9302 46.5,26.5C 45.3915,24.7859 46.0582,24.1192 48.5,24.5C 49.4345,23.4324 49.7678,22.099 49.5,20.5C 48.5,20.5 47.5,20.5 46.5,20.5C 46.7678,18.901 46.4345,17.5676 45.5,16.5C 45.7587,13.7282 46.7587,11.3949 48.5,9.5C 48.6427,11.2624 48.3094,12.9291 47.5,14.5C 50.7852,14.6981 52.4518,16.3648 52.5,19.5C 54.6648,19.8841 56.3315,19.2174 57.5,17.5C 54.6582,16.9955 53.3249,15.3289 53.5,12.5C 54.5,12.5 55.5,12.5 56.5,12.5C 57.1667,11.8333 57.8333,11.1667 58.5,10.5C 58.393,12.9032 59.393,14.7365 61.5,16C 68.5303,15.64 70.197,12.4733 66.5,6.5C 68.0276,5.19792 69.0276,3.53125 69.5,1.5 Z"/></g>
<g><path style="opacity:1" fill="#cb422a" d="M 95.5,6.5 C 95.5,7.5 95.5,8.5 95.5,9.5C 97.1667,9.5 98.8333,9.5 100.5,9.5C 100.5,10.5 100.5,11.5 100.5,12.5C 97.0921,11.828 94.4255,12.828 92.5,15.5C 91.4911,12.5274 91.4911,9.52741 92.5,6.5C 93.5,6.5 94.5,6.5 95.5,6.5 Z"/></g>
<g><path style="opacity:1" fill="#232f23" d="M 73.5,8.5 C 75.337,8.63945 75.6704,9.30612 74.5,10.5C 73.7025,10.0431 73.3691,9.37644 73.5,8.5 Z"/></g>
<g><path style="opacity:1" fill="#537e5e" d="M 45.5,16.5 C 46.4345,17.5676 46.7678,18.901 46.5,20.5C 47.5,20.5 48.5,20.5 49.5,20.5C 49.7678,22.099 49.4345,23.4324 48.5,24.5C 48.5,23.5 48.5,22.5 48.5,21.5C 47.5,21.5 46.5,21.5 45.5,21.5C 45.762,20.0222 45.4287,18.6888 44.5,17.5C 43.8281,18.9492 43.1614,20.2825 42.5,21.5C 42.5,19.8333 42.5,18.1667 42.5,16.5C 43.5,16.5 44.5,16.5 45.5,16.5 Z"/></g>
<g><path style="opacity:1" fill="#42b261" d="M 117.5,23.5 C 116.5,25.1667 115.167,26.5 113.5,27.5C 112.5,27.5 111.5,27.5 110.5,27.5C 110.5,24.5 110.5,21.5 110.5,18.5C 109.325,18.719 108.325,18.3857 107.5,17.5C 108.127,16.5832 108.461,15.5832 108.5,14.5C 109.789,12.752 111.289,12.4186 113,13.5C 113.497,16.146 113.664,18.8127 113.5,21.5C 115.483,21.1568 116.817,21.8235 117.5,23.5 Z"/></g>
<g><path style="opacity:1" fill="#220101" d="M 95.5,19.5 C 97.5273,19.3379 99.5273,19.5045 101.5,20C 102.056,20.3826 102.389,20.8826 102.5,21.5C 102.614,23.7179 103.28,25.7179 104.5,27.5C 100.999,26.2035 97.4989,26.2035 94,27.5C 82.1595,17.223 70.3262,17.0563 58.5,27C 54.9425,27.1459 51.6091,27.9792 48.5,29.5C 50.5605,27.7068 51.8939,25.3735 52.5,22.5C 56.3666,23.5915 59.1999,22.2581 61,18.5C 63.9063,19.4124 66.573,18.7457 69,16.5C 73.0815,18.1548 76.7482,17.4881 80,14.5C 80.8333,15.3333 81.6667,16.1667 82.5,17C 86.952,17.4198 91.2853,18.2532 95.5,19.5 Z"/></g>
<g><path style="opacity:1" fill="#529f67" d="M 120.5,19.5 C 120.262,21.4044 119.262,22.7377 117.5,23.5C 116.817,21.8235 115.483,21.1568 113.5,21.5C 113.664,18.8127 113.497,16.146 113,13.5C 111.289,12.4186 109.789,12.752 108.5,14.5C 109.331,10.4899 111.164,9.8232 114,12.5C 114.333,15.1667 114.667,17.8333 115,20.5C 116.578,17.1627 118.412,16.8294 120.5,19.5 Z"/></g>
<g><path style="opacity:1" fill="#4aad65" d="M 42.5,21.5 C 43.1614,20.2825 43.8281,18.9492 44.5,17.5C 45.4287,18.6888 45.762,20.0222 45.5,21.5C 46.5,21.5 47.5,21.5 48.5,21.5C 48.5,22.5 48.5,23.5 48.5,24.5C 46.0582,24.1192 45.3915,24.7859 46.5,26.5C 44.9626,28.9302 43.296,28.9302 41.5,26.5C 39.6519,24.4836 37.9852,22.317 36.5,20C 36.6135,18.7202 37.2801,17.8869 38.5,17.5C 39.84,18.8665 41.1733,20.1999 42.5,21.5 Z"/></g>
<g><path style="opacity:1" fill="#52a067" d="M 108.5,14.5 C 108.461,15.5832 108.127,16.5832 107.5,17.5C 108.325,18.3857 109.325,18.719 110.5,18.5C 110.5,21.5 110.5,24.5 110.5,27.5C 111.5,27.5 112.5,27.5 113.5,27.5C 112.745,29.4663 111.579,29.7996 110,28.5C 109.667,25.8333 109.333,23.1667 109,20.5C 107.981,21.6872 106.814,22.6872 105.5,23.5C 104.478,23.1445 103.811,22.4778 103.5,21.5C 104.811,18.8646 106.478,16.5313 108.5,14.5 Z"/></g>
<g><path style="opacity:1" fill="#370201" d="M 104.5,27.5 C 105.791,27.2627 106.791,27.596 107.5,28.5C 103.486,28.3345 99.4862,28.5012 95.5,29C 95,29.5 94.5,30 94,30.5C 91.8377,28.5038 89.3377,27.1705 86.5,26.5C 84.8333,25.8333 83.1667,25.1667 81.5,24.5C 77.8064,22.5876 73.8064,22.0876 69.5,23C 67.9371,23.7589 66.9371,24.9256 66.5,26.5C 63.8206,27.2261 61.154,28.0594 58.5,29C 57.6198,30.3561 57.2865,31.8561 57.5,33.5C 53.5341,32.8379 49.5341,32.5045 45.5,32.5C 46.1667,31.1667 47.1667,30.1667 48.5,29.5C 51.6091,27.9792 54.9425,27.1459 58.5,27C 70.3262,17.0563 82.1595,17.223 94,27.5C 97.4989,26.2035 100.999,26.2035 104.5,27.5 Z"/></g>
<g><path style="opacity:1" fill="#720801" d="M 81.5,24.5 C 77.351,23.9197 73.6843,24.5864 70.5,26.5C 69.1667,26.5 67.8333,26.5 66.5,26.5C 66.9371,24.9256 67.9371,23.7589 69.5,23C 73.8064,22.0876 77.8064,22.5876 81.5,24.5 Z"/></g>
<g><path style="opacity:1" fill="#cd3f28" d="M 124.5,36.5 C 120.939,39.3734 117.772,38.7068 115,34.5C 114.391,31.9348 114.891,29.6015 116.5,27.5C 119.448,27.7771 122.281,27.4438 125,26.5C 125.232,28.2834 124.732,29.9501 123.5,31.5C 124.046,33.1347 124.38,34.8014 124.5,36.5 Z"/></g>
<g><path style="opacity:1" fill="#bb4d39" d="M 126.5,25.5 C 127.167,26.5 127.833,27.5 128.5,28.5C 127.235,29.4793 125.901,30.4793 124.5,31.5C 127.109,33.2882 127.109,34.9548 124.5,36.5C 124.38,34.8014 124.046,33.1347 123.5,31.5C 124.732,29.9501 125.232,28.2834 125,26.5C 122.281,27.4438 119.448,27.7771 116.5,27.5C 119.589,26.2154 122.922,25.5488 126.5,25.5 Z"/></g>
<g><path style="opacity:1" fill="#fdde68" d="M 79.5,26.5 C 81.3084,26.4914 82.9751,26.9914 84.5,28C 83.7562,29.0386 82.7562,29.5386 81.5,29.5C 81.2178,28.2223 80.5511,27.2223 79.5,26.5 Z"/></g>
<g><path style="opacity:1" fill="#490102" d="M 86.5,26.5 C 89.3377,27.1705 91.8377,28.5038 94,30.5C 94.5,30 95,29.5 95.5,29C 99.4862,28.5012 103.486,28.3345 107.5,28.5C 110.522,31.863 113.188,35.5296 115.5,39.5C 114.833,39.5 114.167,39.5 113.5,39.5C 111.721,37.4535 110.054,35.2869 108.5,33C 100.126,31.0655 94.7932,34.2321 92.5,42.5C 91.6236,42.6309 90.9569,42.2975 90.5,41.5C 89.9329,39.0177 89.2663,36.6843 88.5,34.5C 87.8902,33.609 87.5569,32.609 87.5,31.5C 86.962,29.8828 86.6287,28.2161 86.5,26.5 Z"/></g>
<g><path style="opacity:1" fill="#c94c06" d="M 66.5,26.5 C 67.8333,26.5 69.1667,26.5 70.5,26.5C 66.183,29.4864 62.183,32.8197 58.5,36.5C 58.2148,34.712 58.5481,33.0453 59.5,31.5C 61.8092,29.6466 64.1425,27.98 66.5,26.5 Z"/></g>
<g><path style="opacity:1" fill="#fdfbe0" d="M 77.5,26.5 C 78.1667,26.5 78.8333,26.5 79.5,26.5C 80.5511,27.2223 81.2178,28.2223 81.5,29.5C 80.3065,30.2719 79.3065,31.2719 78.5,32.5C 76.0672,32.2729 74.4006,33.2729 73.5,35.5C 70.5939,36.7866 67.5939,37.7866 64.5,38.5C 65.7501,36.1771 67.0834,33.8437 68.5,31.5C 70.3104,27.6892 73.3104,26.0225 77.5,26.5 Z"/></g>
<g><path style="opacity:1" fill="#bc3a0c" d="M 81.5,24.5 C 83.1667,25.1667 84.8333,25.8333 86.5,26.5C 86.6287,28.2161 86.962,29.8828 87.5,31.5C 85.9519,31.8212 85.2852,32.8212 85.5,34.5C 84.596,33.791 84.2627,32.791 84.5,31.5C 82.4352,31.5172 80.4352,31.8505 78.5,32.5C 79.3065,31.2719 80.3065,30.2719 81.5,29.5C 82.7562,29.5386 83.7562,29.0386 84.5,28C 82.9751,26.9914 81.3084,26.4914 79.5,26.5C 78.8333,26.5 78.1667,26.5 77.5,26.5C 75.2743,25.2437 72.941,25.2437 70.5,26.5C 73.6843,24.5864 77.351,23.9197 81.5,24.5 Z"/></g>
<g><path style="opacity:1" fill="#c34732" d="M 39.5,26.5 C 40.6776,29.4773 40.6776,32.4773 39.5,35.5C 36.4867,35.8928 33.8201,35.2261 31.5,33.5C 31.2885,27.357 33.9551,25.0236 39.5,26.5 Z"/></g>
<g><path style="opacity:1" fill="#3d302f" d="M 35.5,29.5 C 37.4646,29.9483 37.7979,30.9483 36.5,32.5C 35.6143,31.675 35.281,30.675 35.5,29.5 Z"/></g>
<g><path style="opacity:1" fill="#912106" d="M 113.5,39.5 C 111.372,38.0427 109.038,37.0427 106.5,36.5C 102.058,35.2024 98.3916,36.5357 95.5,40.5C 94.5,41.1667 93.5,41.8333 92.5,42.5C 94.7932,34.2321 100.126,31.0655 108.5,33C 110.054,35.2869 111.721,37.4535 113.5,39.5 Z"/></g>
<g><path style="opacity:1" fill="#520503" d="M 66.5,26.5 C 64.1425,27.98 61.8092,29.6466 59.5,31.5C 58.5481,33.0453 58.2148,34.712 58.5,36.5C 57.4168,36.5394 56.4168,36.8728 55.5,37.5C 49.8322,33.2783 44.8322,33.945 40.5,39.5C 41.0693,36.2809 42.736,33.9475 45.5,32.5C 49.5341,32.5045 53.5341,32.8379 57.5,33.5C 57.2865,31.8561 57.6198,30.3561 58.5,29C 61.154,28.0594 63.8206,27.2261 66.5,26.5 Z"/></g>
<g><path style="opacity:1" fill="#f6780d" d="M 87.5,31.5 C 87.5569,32.609 87.8902,33.609 88.5,34.5C 88.8128,38.0419 88.4794,41.3752 87.5,44.5C 86.7632,41.2746 86.0965,37.9412 85.5,34.5C 85.2852,32.8212 85.9519,31.8212 87.5,31.5 Z"/></g>
<g><path style="opacity:1" fill="#a12a06" d="M 58.5,36.5 C 58.2014,38.4553 57.2014,39.7886 55.5,40.5C 53.9505,39.5592 52.2838,38.8925 50.5,38.5C 48.5,37.1667 46.5,37.1667 44.5,38.5C 42.3567,40.1307 40.69,42.1307 39.5,44.5C 39.6287,42.7839 39.962,41.1172 40.5,39.5C 44.8322,33.945 49.8322,33.2783 55.5,37.5C 56.4168,36.8728 57.4168,36.5394 58.5,36.5 Z"/></g>
<g><path style="opacity:1" fill="#fcdd5c" d="M 106.5,36.5 C 109.038,37.0427 111.372,38.0427 113.5,39.5C 114.914,41.5983 114.248,42.5983 111.5,42.5C 110.55,39.8851 108.883,37.8851 106.5,36.5 Z"/></g>
<g><path style="opacity:1" fill="#7d80a9" d="M 26.5,35.5 C 33.3753,35.3072 35.2086,38.3072 32,44.5C 26.4773,46.487 23.9773,44.487 24.5,38.5C 24.9321,37.2905 25.5987,36.2905 26.5,35.5 Z"/></g>
<g><path style="opacity:1" fill="#fdfadc" d="M 106.5,36.5 C 108.883,37.8851 110.55,39.8851 111.5,42.5C 110.29,42.9321 109.29,43.5987 108.5,44.5C 108.167,44.5 107.833,44.5 107.5,44.5C 107.167,44.5 106.833,44.5 106.5,44.5C 106.53,43.5028 106.03,42.8361 105,42.5C 95.3242,40.2048 95.8242,38.2048 106.5,36.5 Z"/></g>
<g><path style="opacity:1" fill="#fcf9eb" d="M 50.5,38.5 C 52.2838,38.8925 53.9505,39.5592 55.5,40.5C 55.5,41.1667 55.5,41.8333 55.5,42.5C 52.0127,43.7454 49.0127,45.7454 46.5,48.5C 46.5977,45.4512 46.5977,42.2845 46.5,39C 47.7932,38.51 49.1266,38.3433 50.5,38.5 Z"/></g>
<g><path style="opacity:1" fill="#fcf33d" d="M 68.5,31.5 C 67.0834,33.8437 65.7501,36.1771 64.5,38.5C 67.5939,37.7866 70.5939,36.7866 73.5,35.5C 73.1667,36.8333 72.8333,38.1667 72.5,39.5C 70.3199,41.8633 68.6532,44.53 67.5,47.5C 66.2502,47.5774 65.4169,48.244 65,49.5C 63.6703,48.4178 62.1703,47.7512 60.5,47.5C 60.1667,46.8333 59.8333,46.1667 59.5,45.5C 59.67,44.1779 59.3366,43.0113 58.5,42C 59.448,41.5172 60.448,41.3505 61.5,41.5C 61.1924,39.076 61.5258,36.7427 62.5,34.5C 64.7408,33.8714 66.7408,32.8714 68.5,31.5 Z"/></g>
<g><path style="opacity:1" fill="#2b2726" d="M 120.5,19.5 C 123.317,19.8005 123.984,21.1339 122.5,23.5C 123.949,24.1719 125.282,24.8386 126.5,25.5C 122.922,25.5488 119.589,26.2154 116.5,27.5C 114.891,29.6015 114.391,31.9348 115,34.5C 117.772,38.7068 120.939,39.3734 124.5,36.5C 127.109,34.9548 127.109,33.2882 124.5,31.5C 125.901,30.4793 127.235,29.4793 128.5,28.5C 129.586,28.62 130.253,29.2867 130.5,30.5C 129.349,32.3254 128.682,34.3254 128.5,36.5C 130.735,36.2053 132.735,36.5386 134.5,37.5C 131.753,37.1866 129.086,37.52 126.5,38.5C 125.135,40.7508 125.469,42.7508 127.5,44.5C 126.643,45.4252 125.643,46.0919 124.5,46.5C 124.475,43.821 123.142,42.4877 120.5,42.5C 118.589,41.925 116.922,40.925 115.5,39.5C 113.188,35.5296 110.522,31.863 107.5,28.5C 106.791,27.596 105.791,27.2627 104.5,27.5C 103.28,25.7179 102.614,23.7179 102.5,21.5C 102.833,21.5 103.167,21.5 103.5,21.5C 103.811,22.4778 104.478,23.1445 105.5,23.5C 106.814,22.6872 107.981,21.6872 109,20.5C 109.333,23.1667 109.667,25.8333 110,28.5C 111.579,29.7996 112.745,29.4663 113.5,27.5C 115.167,26.5 116.5,25.1667 117.5,23.5C 119.262,22.7377 120.262,21.4044 120.5,19.5 Z"/></g>
<g><path style="opacity:1" fill="#fcd623" d="M 77.5,26.5 C 73.3104,26.0225 70.3104,27.6892 68.5,31.5C 66.7408,32.8714 64.7408,33.8714 62.5,34.5C 61.5258,36.7427 61.1924,39.076 61.5,41.5C 60.448,41.3505 59.448,41.5172 58.5,42C 59.3366,43.0113 59.67,44.1779 59.5,45.5C 58.8333,45.1667 58.1667,44.8333 57.5,44.5C 57.5,43.1667 56.8333,42.5 55.5,42.5C 55.5,41.8333 55.5,41.1667 55.5,40.5C 57.2014,39.7886 58.2014,38.4553 58.5,36.5C 62.183,32.8197 66.183,29.4864 70.5,26.5C 72.941,25.2437 75.2743,25.2437 77.5,26.5 Z"/></g>
<g><path style="opacity:1" fill="#740d04" d="M 85.5,34.5 C 86.0965,37.9412 86.7632,41.2746 87.5,44.5C 87.719,45.675 87.3857,46.675 86.5,47.5C 85.1585,45.9951 83.4918,45.3285 81.5,45.5C 81.0296,44.3065 80.0296,43.6399 78.5,43.5C 76.1591,44.1822 73.8257,44.8489 71.5,45.5C 71.5172,43.4352 71.8505,41.4352 72.5,39.5C 72.8333,38.1667 73.1667,36.8333 73.5,35.5C 74.4006,33.2729 76.0672,32.2729 78.5,32.5C 80.4352,31.8505 82.4352,31.5172 84.5,31.5C 84.2627,32.791 84.596,33.791 85.5,34.5 Z"/></g>
<g><path style="opacity:1" fill="#7f82b0" d="M 134.5,37.5 C 135.833,38.8333 137.167,40.1667 138.5,41.5C 138.52,43.143 137.853,44.4763 136.5,45.5C 137.326,46.451 137.492,47.451 137,48.5C 135.414,49.376 133.914,50.376 132.5,51.5C 130.958,50.2532 129.458,50.2532 128,51.5C 127.051,49.9069 125.885,48.5736 124.5,47.5C 124.5,47.1667 124.5,46.8333 124.5,46.5C 125.643,46.0919 126.643,45.4252 127.5,44.5C 125.469,42.7508 125.135,40.7508 126.5,38.5C 129.086,37.52 131.753,37.1866 134.5,37.5 Z"/></g>
<g><path style="opacity:1" fill="#cf3b0c" d="M 113.5,39.5 C 114.167,39.5 114.833,39.5 115.5,39.5C 115.557,40.609 115.89,41.609 116.5,42.5C 116.802,45.0593 116.468,47.3926 115.5,49.5C 115.5,47.8333 115.5,46.1667 115.5,44.5C 113.167,44.5 110.833,44.5 108.5,44.5C 109.29,43.5987 110.29,42.9321 111.5,42.5C 114.248,42.5983 114.914,41.5983 113.5,39.5 Z"/></g>
<g><path style="opacity:1" fill="#c23806" d="M 88.5,34.5 C 89.2663,36.6843 89.9329,39.0177 90.5,41.5C 90.9569,42.2975 91.6236,42.6309 92.5,42.5C 91.4043,45.0316 90.0709,47.3649 88.5,49.5C 87.391,49.4431 86.391,49.1098 85.5,48.5C 85.1667,48.5 84.8333,48.5 84.5,48.5C 83.6935,47.2719 82.6935,46.2719 81.5,45.5C 83.4918,45.3285 85.1585,45.9951 86.5,47.5C 87.3857,46.675 87.719,45.675 87.5,44.5C 88.4794,41.3752 88.8128,38.0419 88.5,34.5 Z"/></g>
<g><path style="opacity:1" fill="#fad725" d="M 106.5,36.5 C 95.8242,38.2048 95.3242,40.2048 105,42.5C 106.03,42.8361 106.53,43.5028 106.5,44.5C 105.5,45.1667 104.5,45.8333 103.5,46.5C 100.092,45.828 97.4255,46.828 95.5,49.5C 94.3565,46.5023 94.3565,43.5023 95.5,40.5C 98.3916,36.5357 102.058,35.2024 106.5,36.5 Z"/></g>
<g><path style="opacity:1" fill="#fbf596" d="M 44.5,38.5 C 46.5,37.1667 48.5,37.1667 50.5,38.5C 49.1266,38.3433 47.7932,38.51 46.5,39C 46.5977,42.2845 46.5977,45.4512 46.5,48.5C 46.2627,49.791 46.596,50.791 47.5,51.5C 47.5,52.1667 47.5,52.8333 47.5,53.5C 46.391,53.4431 45.391,53.1098 44.5,52.5C 43.7222,51.8444 43.0556,51.0111 42.5,50C 43.6009,46.864 44.6009,43.6973 45.5,40.5C 45.4573,39.5836 45.1239,38.9169 44.5,38.5 Z"/></g>
<g><path style="opacity:1" fill="#4e0703" d="M 40.5,39.5 C 39.962,41.1172 39.6287,42.7839 39.5,44.5C 39.5,45.1667 39.5,45.8333 39.5,46.5C 38.6618,46.8417 38.3284,47.5084 38.5,48.5C 38.1667,48.5 37.8333,48.5 37.5,48.5C 36.5233,51.2869 36.19,54.2869 36.5,57.5C 36.1667,57.5 35.8333,57.5 35.5,57.5C 35.2941,53.1018 35.6274,48.7685 36.5,44.5C 36.1966,41.4124 37.5299,39.7458 40.5,39.5 Z"/></g>
<g><path style="opacity:1" fill="#fedf8f" d="M 81.5,45.5 C 82.6935,46.2719 83.6935,47.2719 84.5,48.5C 80.8654,47.4208 77.1987,47.4208 73.5,48.5C 75.7916,46.7329 78.4582,45.7329 81.5,45.5 Z"/></g>
<g><path style="opacity:1" fill="#cb5119" d="M 55.5,42.5 C 56.8333,42.5 57.5,43.1667 57.5,44.5C 52.4827,44.5286 49.1494,46.8619 47.5,51.5C 46.596,50.791 46.2627,49.791 46.5,48.5C 49.0127,45.7454 52.0127,43.7454 55.5,42.5 Z"/></g>
<g><path style="opacity:1" fill="#fbb304" d="M 95.5,40.5 C 94.3565,43.5023 94.3565,46.5023 95.5,49.5C 97.4255,46.828 100.092,45.828 103.5,46.5C 102.081,47.4511 100.415,47.7845 98.5,47.5C 98.6621,49.5273 98.4955,51.5273 98,53.5C 96.9887,54.3366 95.8221,54.67 94.5,54.5C 93.2915,51.4785 91.9582,51.1451 90.5,53.5C 90.2671,51.9382 89.6005,50.6049 88.5,49.5C 90.0709,47.3649 91.4043,45.0316 92.5,42.5C 93.5,41.8333 94.5,41.1667 95.5,40.5 Z"/></g>
<g><path style="opacity:1" fill="#670b03" d="M 57.5,44.5 C 58.671,48.1623 60.5043,51.4957 63,54.5C 63.4996,61.1583 63.6663,67.825 63.5,74.5C 62.5,74.5 61.5,74.5 60.5,74.5C 60.1667,73.8333 59.8333,73.1667 59.5,72.5C 60.5,72.5 61.5,72.5 62.5,72.5C 63.3,64.319 61.6333,56.819 57.5,50C 52.1048,48.1826 49.4382,50.016 49.5,55.5C 48.8333,54.8333 48.1667,54.1667 47.5,53.5C 47.5,52.8333 47.5,52.1667 47.5,51.5C 49.1494,46.8619 52.4827,44.5286 57.5,44.5 Z"/></g>
<g><path style="opacity:1" fill="#fdfcf3" d="M 84.5,48.5 C 84.8333,48.5 85.1667,48.5 85.5,48.5C 87.1921,50.2048 88.5254,52.2048 89.5,54.5C 86.5925,56.8046 83.2592,58.1379 79.5,58.5C 76.4552,58.4921 73.4552,58.1587 70.5,57.5C 68.2381,56.6551 67.5714,55.3217 68.5,53.5C 70.5,52.1667 72.1667,50.5 73.5,48.5C 77.1987,47.4208 80.8654,47.4208 84.5,48.5 Z"/></g>
<g><path style="opacity:1" fill="#570202" d="M 108.5,44.5 C 110.833,44.5 113.167,44.5 115.5,44.5C 115.5,46.1667 115.5,47.8333 115.5,49.5C 115.5,50.8333 115.5,52.1667 115.5,53.5C 114.504,53.4142 113.671,53.7476 113,54.5C 112.781,53.062 112.281,51.7287 111.5,50.5C 110.526,52.7427 110.192,55.076 110.5,57.5C 110.167,57.5 109.833,57.5 109.5,57.5C 109.073,53.1756 108.739,48.8422 108.5,44.5 Z"/></g>
<g><path style="opacity:1" fill="#fbf340" d="M 44.5,38.5 C 45.1239,38.9169 45.4573,39.5836 45.5,40.5C 44.6009,43.6973 43.6009,46.864 42.5,50C 43.0556,51.0111 43.7222,51.8444 44.5,52.5C 40.686,52.3491 39.0193,50.3491 39.5,46.5C 39.5,45.8333 39.5,45.1667 39.5,44.5C 40.69,42.1307 42.3567,40.1307 44.5,38.5 Z"/></g>
<g><path style="opacity:1" fill="#fade3c" d="M 85.5,48.5 C 86.391,49.1098 87.391,49.4431 88.5,49.5C 89.6005,50.6049 90.2671,51.9382 90.5,53.5C 90.5,54.1667 90.1667,54.5 89.5,54.5C 88.5254,52.2048 87.1921,50.2048 85.5,48.5 Z"/></g>
<g><path style="opacity:1" fill="#fc7903" d="M 106.5,44.5 C 106.833,44.5 107.167,44.5 107.5,44.5C 107.261,53.1999 106.261,61.5332 104.5,69.5C 103.529,67.5168 102.529,65.5168 101.5,63.5C 102.496,63.5858 103.329,63.2524 104,62.5C 104.032,56.3292 104.865,50.3292 106.5,44.5 Z"/></g>
<g><path style="opacity:1" fill="#4fa767" d="M 19.5,44.5 C 21.7224,44.178 23.5557,44.8446 25,46.5C 24.5914,50.2084 24.758,53.8751 25.5,57.5C 20.6801,56.679 17.3467,54.0124 15.5,49.5C 15.7313,46.9368 17.0646,45.2702 19.5,44.5 Z"/></g>
<g><path style="opacity:1" fill="#3f5541" d="M 19.5,47.5 C 20.5,47.5 21.5,47.5 22.5,47.5C 22.5,48.5 22.5,49.5 22.5,50.5C 21.5,50.5 20.5,50.5 19.5,50.5C 19.5,49.5 19.5,48.5 19.5,47.5 Z"/></g>
<g><path style="opacity:1" fill="#cd3d04" d="M 72.5,39.5 C 71.8505,41.4352 71.5172,43.4352 71.5,45.5C 73.8257,44.8489 76.1591,44.1822 78.5,43.5C 80.0296,43.6399 81.0296,44.3065 81.5,45.5C 78.4582,45.7329 75.7916,46.7329 73.5,48.5C 70.8333,49.1667 69.1667,50.8333 68.5,53.5C 67.391,53.5569 66.391,53.8902 65.5,54.5C 64.5233,57.2869 64.19,60.2869 64.5,63.5C 65.1667,67.5 65.8333,71.5 66.5,75.5C 64.2646,75.7947 62.2646,75.4614 60.5,74.5C 61.5,74.5 62.5,74.5 63.5,74.5C 63.6663,67.825 63.4996,61.1583 63,54.5C 60.5043,51.4957 58.671,48.1623 57.5,44.5C 58.1667,44.8333 58.8333,45.1667 59.5,45.5C 59.8333,46.1667 60.1667,46.8333 60.5,47.5C 63.2086,54.0605 65.5419,54.0605 67.5,47.5C 68.6532,44.53 70.3199,41.8633 72.5,39.5 Z"/></g>
<g><path style="opacity:1" fill="#fac407" d="M 60.5,47.5 C 62.1703,47.7512 63.6703,48.4178 65,49.5C 65.4169,48.244 66.2502,47.5774 67.5,47.5C 65.5419,54.0605 63.2086,54.0605 60.5,47.5 Z"/></g>
<g><path style="opacity:1" fill="#fcde96" d="M 73.5,48.5 C 72.1667,50.5 70.5,52.1667 68.5,53.5C 69.1667,50.8333 70.8333,49.1667 73.5,48.5 Z"/></g>
<g><path style="opacity:1" fill="#830d08" d="M 116.5,42.5 C 117.44,49.5071 118.44,56.5071 119.5,63.5C 119.5,70.5 119.5,77.5 119.5,84.5C 119.167,84.5 118.833,84.5 118.5,84.5C 118.819,79.6367 118.486,74.97 117.5,70.5C 117.283,64.64 116.617,58.9734 115.5,53.5C 115.5,52.1667 115.5,50.8333 115.5,49.5C 116.468,47.3926 116.802,45.0593 116.5,42.5 Z"/></g>
<g><path style="opacity:1" fill="#270101" d="M 120.5,42.5 C 123.142,42.4877 124.475,43.821 124.5,46.5C 124.5,46.8333 124.5,47.1667 124.5,47.5C 123.427,48.2506 123.26,49.2506 124,50.5C 125.376,51.7051 126.542,53.0384 127.5,54.5C 130.477,69.9057 129.977,85.239 126,100.5C 125.617,101.056 125.117,101.389 124.5,101.5C 124.44,100.957 124.107,100.624 123.5,100.5C 122.468,102.04 121.135,102.54 119.5,102C 121.697,99.3524 121.697,96.8524 119.5,94.5C 120.718,93.1973 120.385,92.1973 118.5,91.5C 119.374,89.2534 119.708,86.9201 119.5,84.5C 119.5,77.5 119.5,70.5 119.5,63.5C 119.337,61.1432 119.503,58.8098 120,56.5C 121.109,60.017 122.276,60.1837 123.5,57C 123.182,54.6249 121.849,53.4583 119.5,53.5C 119.34,51.8008 119.506,50.1341 120,48.5C 120.998,51.0278 121.831,51.0278 122.5,48.5C 122.023,46.4035 121.357,44.4035 120.5,42.5 Z"/></g>
<g><path style="opacity:1" fill="#232223" d="M 138.5,41.5 C 139.88,41.9623 140.547,42.9623 140.5,44.5C 139.551,52.4562 135.217,55.7896 127.5,54.5C 126.542,53.0384 125.376,51.7051 124,50.5C 123.26,49.2506 123.427,48.2506 124.5,47.5C 125.885,48.5736 127.051,49.9069 128,51.5C 129.458,50.2532 130.958,50.2532 132.5,51.5C 133.914,50.376 135.414,49.376 137,48.5C 137.492,47.451 137.326,46.451 136.5,45.5C 137.853,44.4763 138.52,43.143 138.5,41.5 Z"/></g>
<g><path style="opacity:1" fill="#3d0101" d="M 115.5,39.5 C 116.922,40.925 118.589,41.925 120.5,42.5C 121.357,44.4035 122.023,46.4035 122.5,48.5C 121.831,51.0278 120.998,51.0278 120,48.5C 119.506,50.1341 119.34,51.8008 119.5,53.5C 121.849,53.4583 123.182,54.6249 123.5,57C 122.276,60.1837 121.109,60.017 120,56.5C 119.503,58.8098 119.337,61.1432 119.5,63.5C 118.44,56.5071 117.44,49.5071 116.5,42.5C 115.89,41.609 115.557,40.609 115.5,39.5 Z"/></g>
<g><path style="opacity:1" fill="#fad422" d="M 39.5,46.5 C 39.0193,50.3491 40.686,52.3491 44.5,52.5C 45.391,53.1098 46.391,53.4431 47.5,53.5C 48.1667,54.1667 48.8333,54.8333 49.5,55.5C 49.5,55.8333 49.5,56.1667 49.5,56.5C 49.631,57.2389 49.4643,57.9056 49,58.5C 46.1667,57 43.3333,55.5 40.5,54C 38.8446,52.5557 38.178,50.7224 38.5,48.5C 38.3284,47.5084 38.6618,46.8417 39.5,46.5 Z"/></g>
<g><path style="opacity:1" fill="#fca103" d="M 106.5,44.5 C 104.865,50.3292 104.032,56.3292 104,62.5C 103.329,63.2524 102.496,63.5858 101.5,63.5C 100.833,62.1667 99.8333,61.1667 98.5,60.5C 97.5849,58.2459 96.2516,56.2459 94.5,54.5C 95.8221,54.67 96.9887,54.3366 98,53.5C 98.4955,51.5273 98.6621,49.5273 98.5,47.5C 100.415,47.7845 102.081,47.4511 103.5,46.5C 104.5,45.8333 105.5,45.1667 106.5,44.5 Z"/></g>
<g><path style="opacity:1" fill="#945548" d="M 12.5,54.5 C 12.0472,55.4584 11.3805,56.2917 10.5,57C 11.0944,57.4643 11.7611,57.631 12.5,57.5C 11.791,58.404 10.791,58.7373 9.5,58.5C 9.08824,56.0274 10.0882,54.6941 12.5,54.5 Z"/></g>
<g><path style="opacity:1" fill="#310301" d="M 59.5,72.5 C 58.2411,68.9754 56.2411,65.9754 53.5,63.5C 52.9213,60.6689 51.588,58.3356 49.5,56.5C 49.5,56.1667 49.5,55.8333 49.5,55.5C 49.4382,50.016 52.1048,48.1826 57.5,50C 61.6333,56.819 63.3,64.319 62.5,72.5C 61.5,72.5 60.5,72.5 59.5,72.5 Z"/></g>
<g><path style="opacity:1" fill="#c8442d" d="M 10.5,51.5 C 12.0481,51.8212 12.7148,52.8212 12.5,54.5C 10.0882,54.6941 9.08824,56.0274 9.5,58.5C 10.791,58.7373 11.791,58.404 12.5,57.5C 14.1417,55.9192 16.1417,55.2525 18.5,55.5C 18.2957,59.4374 17.2957,63.1041 15.5,66.5C 14.1667,66.5 12.8333,66.5 11.5,66.5C 11.4208,65.0695 11.7542,63.7362 12.5,62.5C 7.87019,63.5545 5.53686,61.5545 5.5,56.5C 6.806,54.5273 8.47266,52.8606 10.5,51.5 Z"/></g>
<g><path style="opacity:1" fill="#fb8b02" d="M 37.5,48.5 C 37.8333,48.5 38.1667,48.5 38.5,48.5C 38.178,50.7224 38.8446,52.5557 40.5,54C 43.3333,55.5 46.1667,57 49,58.5C 49.4643,57.9056 49.631,57.2389 49.5,56.5C 51.588,58.3356 52.9213,60.6689 53.5,63.5C 55.4023,67.9992 54.4023,71.6658 50.5,74.5C 49.2638,73.7542 47.9305,73.4208 46.5,73.5C 44.6871,69.7891 43.5204,65.7891 43,61.5C 40.6188,59.1053 38.7854,56.4387 37.5,53.5C 37.5,51.8333 37.5,50.1667 37.5,48.5 Z"/></g>
<g><path style="opacity:1" fill="#f9c421" d="M 70.5,57.5 C 73.4552,58.1587 76.4552,58.4921 79.5,58.5C 79.5,58.8333 79.5,59.1667 79.5,59.5C 79.1667,59.5 78.8333,59.5 78.5,59.5C 76.4727,59.3379 74.4727,59.5045 72.5,60C 73.9783,62.0386 75.9783,62.8719 78.5,62.5C 77.9032,63.1386 77.0698,63.472 76,63.5C 73.7298,62.1401 71.2298,61.4734 68.5,61.5C 68.5271,59.8007 69.1938,58.4674 70.5,57.5 Z"/></g>
<g><path style="opacity:1" fill="#c43c0a" d="M 94.5,54.5 C 93.448,54.3505 92.448,54.5172 91.5,55C 87.8461,57.5946 84.1795,60.0946 80.5,62.5C 80.5,69.1667 80.5,75.8333 80.5,82.5C 79.5111,77.0247 79.1778,71.358 79.5,65.5C 79.5,65.1667 79.5,64.8333 79.5,64.5C 79.5,62.8333 79.5,61.1667 79.5,59.5C 79.5,59.1667 79.5,58.8333 79.5,58.5C 83.2592,58.1379 86.5925,56.8046 89.5,54.5C 90.1667,54.5 90.5,54.1667 90.5,53.5C 91.9582,51.1451 93.2915,51.4785 94.5,54.5 Z"/></g>
<g><path style="opacity:1" fill="#7e0f03" d="M 94.5,54.5 C 96.2516,56.2459 97.5849,58.2459 98.5,60.5C 96.8523,59.1902 95.1856,57.8569 93.5,56.5C 92.5748,57.3569 91.9081,58.3569 91.5,59.5C 87.7159,60.3208 84.0492,61.3208 80.5,62.5C 84.1795,60.0946 87.8461,57.5946 91.5,55C 92.448,54.5172 93.448,54.3505 94.5,54.5 Z"/></g>
<g><path style="opacity:1" fill="#350101" d="M 98.5,60.5 C 98.3433,61.8734 98.51,63.2068 99,64.5C 101.127,66.1137 102.627,68.1137 103.5,70.5C 102.292,69.7659 100.959,69.4326 99.5,69.5C 98.1547,62.4757 96.488,62.1423 94.5,68.5C 94.7093,69.086 95.0426,69.586 95.5,70C 93.6217,71.5429 92.1217,73.3762 91,75.5C 90.6667,74.5 90.3333,73.5 90,72.5C 89.8404,76.2875 89.1737,79.9542 88,83.5C 87.0859,78.7543 85.9192,74.0877 84.5,69.5C 83.914,69.7093 83.414,70.0426 83,70.5C 82.5034,72.8098 82.3367,75.1432 82.5,77.5C 81.5151,73.3656 81.1818,69.0323 81.5,64.5C 84.4869,64.0022 87.4869,63.5022 90.5,63C 91.3366,61.9887 91.67,60.8221 91.5,59.5C 91.9081,58.3569 92.5748,57.3569 93.5,56.5C 95.1856,57.8569 96.8523,59.1902 98.5,60.5 Z"/></g>
<g><path style="opacity:1" fill="#5c0301" d="M 91.5,59.5 C 91.67,60.8221 91.3366,61.9887 90.5,63C 87.4869,63.5022 84.4869,64.0022 81.5,64.5C 81.1818,69.0323 81.5151,73.3656 82.5,77.5C 82.5,80.5 82.5,83.5 82.5,86.5C 81.8333,85.1667 81.1667,83.8333 80.5,82.5C 80.5,75.8333 80.5,69.1667 80.5,62.5C 84.0492,61.3208 87.7159,60.3208 91.5,59.5 Z"/></g>
<g><path style="opacity:1" fill="#c04934" d="M 149.5,55.5 C 149.52,57.143 148.853,58.4763 147.5,59.5C 149.003,60.0522 150.669,60.0522 152.5,59.5C 152.326,61.861 151.993,64.1944 151.5,66.5C 150.07,66.5792 148.736,66.2458 147.5,65.5C 146.784,66.311 145.95,66.9777 145,67.5C 143.144,66.2643 141.311,66.2643 139.5,67.5C 138.378,65.9564 138.711,64.623 140.5,63.5C 138.345,62.9986 136.678,61.9986 135.5,60.5C 136.473,60.0133 137.473,59.5133 138.5,59C 137.289,58.1072 137.289,57.2739 138.5,56.5C 139.736,57.2458 141.07,57.5792 142.5,57.5C 142.281,56.325 142.614,55.325 143.5,54.5C 145.657,55.1264 147.657,55.4597 149.5,55.5 Z"/></g>
<g><path style="opacity:1" fill="#eb3e04" d="M 107.5,44.5 C 107.833,44.5 108.167,44.5 108.5,44.5C 108.739,48.8422 109.073,53.1756 109.5,57.5C 109.829,63.2055 109.495,68.8722 108.5,74.5C 107.143,72.8144 105.81,71.1477 104.5,69.5C 106.261,61.5332 107.261,53.1999 107.5,44.5 Z"/></g>
<g><path style="opacity:1" fill="#fc9707" d="M 68.5,53.5 C 67.5714,55.3217 68.2381,56.6551 70.5,57.5C 69.1938,58.4674 68.5271,59.8007 68.5,61.5C 71.2298,61.4734 73.7298,62.1401 76,63.5C 77.0698,63.472 77.9032,63.1386 78.5,62.5C 78.5,61.5 78.5,60.5 78.5,59.5C 78.8333,59.5 79.1667,59.5 79.5,59.5C 79.5,61.1667 79.5,62.8333 79.5,64.5C 77.3618,64.703 75.6951,65.703 74.5,67.5C 67.8207,65.6735 64.8207,61.3402 65.5,54.5C 66.391,53.8902 67.391,53.5569 68.5,53.5 Z"/></g>
<g><path style="opacity:1" fill="#fcef24" d="M 78.5,59.5 C 78.5,60.5 78.5,61.5 78.5,62.5C 75.9783,62.8719 73.9783,62.0386 72.5,60C 74.4727,59.5045 76.4727,59.3379 78.5,59.5 Z"/></g>
<g><path style="opacity:1" fill="#871006" d="M 109.5,57.5 C 109.833,57.5 110.167,57.5 110.5,57.5C 110.83,64.5316 110.497,71.5316 109.5,78.5C 106.609,76.4707 104.609,73.804 103.5,70.5C 102.627,68.1137 101.127,66.1137 99,64.5C 98.51,63.2068 98.3433,61.8734 98.5,60.5C 99.8333,61.1667 100.833,62.1667 101.5,63.5C 102.529,65.5168 103.529,67.5168 104.5,69.5C 105.81,71.1477 107.143,72.8144 108.5,74.5C 109.495,68.8722 109.829,63.2055 109.5,57.5 Z"/></g>
<g><path style="opacity:1" fill="#290101" d="M 115.5,53.5 C 116.617,58.9734 117.283,64.64 117.5,70.5C 117.433,77.6026 116.6,84.6026 115,91.5C 112.498,92.1078 110.498,93.4411 109,95.5C 107.401,94.9293 106.234,93.9293 105.5,92.5C 103.529,86.4002 100.529,80.9002 96.5,76C 95.552,75.5172 94.552,75.3505 93.5,75.5C 93.5,76.8333 93.5,78.1667 93.5,79.5C 94.0565,87.3989 93.0565,95.0656 90.5,102.5C 89.0353,103.609 88.0353,103.109 87.5,101C 87.8333,100.667 88.1667,100.333 88.5,100C 87.2862,97.9506 85.6195,96.4506 83.5,95.5C 83.81,92.2869 83.4767,89.2869 82.5,86.5C 82.5,83.5 82.5,80.5 82.5,77.5C 82.3367,75.1432 82.5034,72.8098 83,70.5C 83.414,70.0426 83.914,69.7093 84.5,69.5C 85.9192,74.0877 87.0859,78.7543 88,83.5C 89.1737,79.9542 89.8404,76.2875 90,72.5C 90.3333,73.5 90.6667,74.5 91,75.5C 92.1217,73.3762 93.6217,71.5429 95.5,70C 95.0426,69.586 94.7093,69.086 94.5,68.5C 96.488,62.1423 98.1547,62.4757 99.5,69.5C 100.959,69.4326 102.292,69.7659 103.5,70.5C 104.609,73.804 106.609,76.4707 109.5,78.5C 110.497,71.5316 110.83,64.5316 110.5,57.5C 110.192,55.076 110.526,52.7427 111.5,50.5C 112.281,51.7287 112.781,53.062 113,54.5C 113.671,53.7476 114.504,53.4142 115.5,53.5 Z"/></g>
<g><path style="opacity:1" fill="#bf2003" d="M 37.5,48.5 C 37.5,50.1667 37.5,51.8333 37.5,53.5C 37.2367,57.6002 37.5701,61.6002 38.5,65.5C 38.2818,77.513 40.7818,88.8463 46,99.5C 47.3561,100.38 48.8561,100.714 50.5,100.5C 50.5,98.5 50.5,96.5 50.5,94.5C 51.4345,95.5676 51.7678,96.901 51.5,98.5C 51.762,99.9778 51.4287,101.311 50.5,102.5C 48.556,101.811 46.556,101.311 44.5,101C 43.7171,98.8816 42.3838,97.3816 40.5,96.5C 37.774,83.6847 36.4407,70.6847 36.5,57.5C 36.19,54.2869 36.5233,51.2869 37.5,48.5 Z"/></g>
<g><path style="opacity:1" fill="#290302" d="M 36.5,44.5 C 35.6274,48.7685 35.2941,53.1018 35.5,57.5C 35.4402,67.8496 35.7735,78.1829 36.5,88.5C 35.1661,75.2044 33.8327,61.871 32.5,48.5C 32.894,46.2901 34.2273,44.9568 36.5,44.5 Z"/></g>
<g><path style="opacity:1" fill="#fc7302" d="M 65.5,54.5 C 64.8207,61.3402 67.8207,65.6735 74.5,67.5C 75.6951,65.703 77.3618,64.703 79.5,64.5C 79.5,64.8333 79.5,65.1667 79.5,65.5C 78.0571,71.4155 76.7238,77.5821 75.5,84C 76.838,86.7243 75.838,87.8909 72.5,87.5C 72.5,88.8333 72.5,90.1667 72.5,91.5C 75.0336,91.2591 76.7002,92.2591 77.5,94.5C 74.342,93.1242 71.0087,92.4576 67.5,92.5C 67.7214,95.2788 67.388,97.9455 66.5,100.5C 64.9929,94.55 63.3262,88.55 61.5,82.5C 61.8091,79.5083 63.4758,78.175 66.5,78.5C 66.5,79.5 66.5,80.5 66.5,81.5C 67.5,81.5 68.5,81.5 69.5,81.5C 69.3796,76.0631 68.5463,70.7297 67,65.5C 66.2917,64.6195 65.4584,63.9528 64.5,63.5C 64.19,60.2869 64.5233,57.2869 65.5,54.5 Z"/></g>
<g><path style="opacity:1" fill="#ebd22b" d="M 154.5,66.5 C 156.5,67.8333 158.167,69.5 159.5,71.5C 160.067,73.698 160.067,76.0314 159.5,78.5C 158.167,78.5 156.833,78.5 155.5,78.5C 155.5,79.5 155.5,80.5 155.5,81.5C 153.473,81.6621 151.473,81.4955 149.5,81C 146.511,78.517 145.178,75.3504 145.5,71.5C 147.167,71.5 148.833,71.5 150.5,71.5C 150.522,76.5018 151.855,76.8352 154.5,72.5C 153.675,71.6143 152.675,71.281 151.5,71.5C 150.916,68.715 151.916,67.0483 154.5,66.5 Z"/></g>
<g><path style="opacity:1" fill="#f85002" d="M 37.5,53.5 C 38.7854,56.4387 40.6188,59.1053 43,61.5C 43.5204,65.7891 44.6871,69.7891 46.5,73.5C 47.9305,73.4208 49.2638,73.7542 50.5,74.5C 54.4023,71.6658 55.4023,67.9992 53.5,63.5C 56.2411,65.9754 58.2411,68.9754 59.5,72.5C 59.8333,73.1667 60.1667,73.8333 60.5,74.5C 62.2646,75.4614 64.2646,75.7947 66.5,75.5C 65.8333,71.5 65.1667,67.5 64.5,63.5C 65.4584,63.9528 66.2917,64.6195 67,65.5C 68.5463,70.7297 69.3796,76.0631 69.5,81.5C 68.5,81.5 67.5,81.5 66.5,81.5C 66.5,80.5 66.5,79.5 66.5,78.5C 63.4758,78.175 61.8091,79.5083 61.5,82.5C 63.3262,88.55 64.9929,94.55 66.5,100.5C 66.8333,101.167 67.1667,101.833 67.5,102.5C 67.5,102.833 67.5,103.167 67.5,103.5C 65.2818,101.626 62.9485,99.793 60.5,98C 61.3578,96.43 62.0245,94.7633 62.5,93C 59.4426,88.8466 56.9426,84.3466 55,79.5C 52.8475,77.0828 51.0141,77.4161 49.5,80.5C 45.5307,75.6936 41.864,70.6936 38.5,65.5C 37.5701,61.6002 37.2367,57.6002 37.5,53.5 Z"/></g>
<g><path style="opacity:1" fill="#d83e06" d="M 105.5,92.5 C 105.455,95.0772 106.455,97.0772 108.5,98.5C 107.054,99.6129 105.387,99.7796 103.5,99C 101.938,97.3664 100.271,95.8664 98.5,94.5C 97.8335,99.0166 97.1669,103.683 96.5,108.5C 93.8053,110.178 91.1386,111.844 88.5,113.5C 87.1266,113.657 85.7932,113.49 84.5,113C 85.056,112.617 85.3893,112.117 85.5,111.5C 88.5236,110.123 91.5236,108.79 94.5,107.5C 94.8269,97.985 94.4936,88.6517 93.5,79.5C 93.5,78.1667 93.5,76.8333 93.5,75.5C 94.552,75.3505 95.552,75.5172 96.5,76C 100.529,80.9002 103.529,86.4002 105.5,92.5 Z"/></g>
<g><path style="opacity:1" fill="#292722" d="M 149.5,55.5 C 150.404,56.209 150.737,57.209 150.5,58.5C 151.822,58.33 152.989,58.6634 154,59.5C 154.497,61.8098 154.663,64.1432 154.5,66.5C 151.916,67.0483 150.916,68.715 151.5,71.5C 152.675,71.281 153.675,71.6143 154.5,72.5C 151.855,76.8352 150.522,76.5018 150.5,71.5C 148.833,71.5 147.167,71.5 145.5,71.5C 145.178,75.3504 146.511,78.517 149.5,81C 151.473,81.4955 153.473,81.6621 155.5,81.5C 155.5,80.5 155.5,79.5 155.5,78.5C 156.833,78.5 158.167,78.5 159.5,78.5C 160.067,76.0314 160.067,73.698 159.5,71.5C 161.722,71.5587 162.722,72.7253 162.5,75C 162.204,76.8882 161.704,78.7216 161,80.5C 159.989,81.3366 158.822,81.67 157.5,81.5C 157.5,82.5 157.5,83.5 157.5,84.5C 148.581,85.7583 144.081,81.7583 144,72.5C 142.211,70.771 140.044,70.1043 137.5,70.5C 137.725,68.2841 136.892,66.6174 135,65.5C 134.22,63.6131 134.387,61.9464 135.5,60.5C 136.678,61.9986 138.345,62.9986 140.5,63.5C 138.711,64.623 138.378,65.9564 139.5,67.5C 141.311,66.2643 143.144,66.2643 145,67.5C 145.95,66.9777 146.784,66.311 147.5,65.5C 148.736,66.2458 150.07,66.5792 151.5,66.5C 151.993,64.1944 152.326,61.861 152.5,59.5C 150.669,60.0522 149.003,60.0522 147.5,59.5C 148.853,58.4763 149.52,57.143 149.5,55.5 Z"/></g>
<g><path style="opacity:1" fill="#4d3433" d="M 143.5,60.5 C 145.337,60.6395 145.67,61.3061 144.5,62.5C 143.702,62.0431 143.369,61.3764 143.5,60.5 Z"/></g>
<g><path style="opacity:1" fill="#f13702" d="M 38.5,65.5 C 41.864,70.6936 45.5307,75.6936 49.5,80.5C 49.5,80.8333 49.5,81.1667 49.5,81.5C 48.4271,83.6531 48.4271,85.6531 49.5,87.5C 49.9926,89.8056 50.3259,92.139 50.5,94.5C 50.5,96.5 50.5,98.5 50.5,100.5C 48.8561,100.714 47.3561,100.38 46,99.5C 40.7818,88.8463 38.2818,77.513 38.5,65.5 Z"/></g>
<g><path style="opacity:1" fill="#f64e03" d="M 79.5,65.5 C 79.1778,71.358 79.5111,77.0247 80.5,82.5C 81.1667,83.8333 81.8333,85.1667 82.5,86.5C 82.5,94.8333 82.5,103.167 82.5,111.5C 78.9221,112.589 75.2554,112.755 71.5,112C 70.6634,110.989 70.33,109.822 70.5,108.5C 72.5943,109.242 74.761,109.909 77,110.5C 78.4357,110.441 79.769,110.108 81,109.5C 81.6667,105.167 81.6667,100.833 81,96.5C 80.3292,95.7476 79.4959,95.4142 78.5,95.5C 78.5,94.8333 78.1667,94.5 77.5,94.5C 76.7002,92.2591 75.0336,91.2591 72.5,91.5C 72.5,90.1667 72.5,88.8333 72.5,87.5C 75.838,87.8909 76.838,86.7243 75.5,84C 76.7238,77.5821 78.0571,71.4155 79.5,65.5 Z"/></g>
<g><path style="opacity:1" fill="#fbae0b" d="M 98.5,86.5 C 98.5394,87.5832 98.8728,88.5832 99.5,89.5C 99.0431,90.2975 98.3764,90.6309 97.5,90.5C 95.6668,88.5043 95.1668,86.171 96,83.5C 96.3768,84.9423 97.2101,85.9423 98.5,86.5 Z"/></g>
<g><path style="opacity:1" fill="#a91a08" d="M 117.5,70.5 C 118.486,74.97 118.819,79.6367 118.5,84.5C 118.295,87.9881 117.461,91.3214 116,94.5C 113.36,95.6558 110.86,96.9891 108.5,98.5C 106.455,97.0772 105.455,95.0772 105.5,92.5C 106.234,93.9293 107.401,94.9293 109,95.5C 110.498,93.4411 112.498,92.1078 115,91.5C 116.6,84.6026 117.433,77.6026 117.5,70.5 Z"/></g>
<g><path style="opacity:1" fill="#220301" d="M 56.5,97.5 C 56.1667,98.5 55.5,99.1667 54.5,99.5C 53.391,99.4431 52.391,99.1098 51.5,98.5C 51.7678,96.901 51.4345,95.5676 50.5,94.5C 50.3259,92.139 49.9926,89.8056 49.5,87.5C 49.3537,85.0576 50.187,84.3909 52,85.5C 53.1103,89.4582 55.277,92.7915 58.5,95.5C 57.7573,96.1818 57.0906,96.8485 56.5,97.5 Z"/></g>
<g><path style="opacity:1" fill="#f8840a" d="M 98.5,86.5 C 99.7571,89.4701 101.424,92.3034 103.5,95C 100.879,94.5735 98.8793,93.0735 97.5,90.5C 98.3764,90.6309 99.0431,90.2975 99.5,89.5C 98.8728,88.5832 98.5394,87.5832 98.5,86.5 Z"/></g>
<g><path style="opacity:1" fill="#390101" d="M 118.5,84.5 C 118.833,84.5 119.167,84.5 119.5,84.5C 119.708,86.9201 119.374,89.2534 118.5,91.5C 120.385,92.1973 120.718,93.1973 119.5,94.5C 121.697,96.8524 121.697,99.3524 119.5,102C 121.135,102.54 122.468,102.04 123.5,100.5C 124.107,100.624 124.44,100.957 124.5,101.5C 123.82,106.522 121.82,110.856 118.5,114.5C 117.948,112.669 117.948,111.003 118.5,109.5C 116.924,107.021 115.924,104.354 115.5,101.5C 110.288,101.512 105.788,103.178 102,106.5C 100.284,105.448 99.2835,106.114 99,108.5C 98.5008,103.845 98.3342,99.1785 98.5,94.5C 100.271,95.8664 101.938,97.3664 103.5,99C 105.387,99.7796 107.054,99.6129 108.5,98.5C 110.86,96.9891 113.36,95.6558 116,94.5C 117.461,91.3214 118.295,87.9881 118.5,84.5 Z"/></g>
<g><path style="opacity:1" fill="#780905" d="M 49.5,81.5 C 50.9778,81.238 52.3112,81.5713 53.5,82.5C 54.6343,85.0698 55.4677,87.7365 56,90.5C 57.6851,92.0175 59.1851,93.6841 60.5,95.5C 59.6798,97.1112 58.3464,97.7778 56.5,97.5C 57.0906,96.8485 57.7573,96.1818 58.5,95.5C 55.277,92.7915 53.1103,89.4582 52,85.5C 50.187,84.3909 49.3537,85.0576 49.5,87.5C 48.4271,85.6531 48.4271,83.6531 49.5,81.5 Z"/></g>
<g><path style="opacity:1" fill="#620502" d="M 35.5,57.5 C 35.8333,57.5 36.1667,57.5 36.5,57.5C 36.4407,70.6847 37.774,83.6847 40.5,96.5C 41.365,101.039 44.0317,103.372 48.5,103.5C 45.0295,104.125 42.1962,103.125 40,100.5C 38.3018,96.6208 37.1351,92.6208 36.5,88.5C 35.7735,78.1829 35.4402,67.8496 35.5,57.5 Z"/></g>
<g><path style="opacity:1" fill="#fc8b01" d="M 77.5,94.5 C 78.1667,94.5 78.5,94.8333 78.5,95.5C 78.178,97.7224 78.8446,99.5557 80.5,101C 76.1866,101.735 71.8533,102.235 67.5,102.5C 67.1667,101.833 66.8333,101.167 66.5,100.5C 67.388,97.9455 67.7214,95.2788 67.5,92.5C 71.0087,92.4576 74.342,93.1242 77.5,94.5 Z"/></g>
<g><path style="opacity:1" fill="#350101" d="M 93.5,79.5 C 94.4936,88.6517 94.8269,97.985 94.5,107.5C 91.5236,108.79 88.5236,110.123 85.5,111.5C 83.5539,106.604 82.8872,101.271 83.5,95.5C 85.6195,96.4506 87.2862,97.9506 88.5,100C 88.1667,100.333 87.8333,100.667 87.5,101C 88.0353,103.109 89.0353,103.609 90.5,102.5C 93.0565,95.0656 94.0565,87.3989 93.5,79.5 Z"/></g>
<g><path style="opacity:1" fill="#cc2b04" d="M 67.5,103.5 C 67.7497,105.674 68.7497,107.341 70.5,108.5C 70.33,109.822 70.6634,110.989 71.5,112C 75.2554,112.755 78.9221,112.589 82.5,111.5C 80.3647,113.369 77.6981,114.036 74.5,113.5C 73.1667,113.5 71.8333,113.5 70.5,113.5C 68.1542,110.129 65.8208,106.796 63.5,103.5C 63.3718,101.91 62.7051,100.577 61.5,99.5C 59.0177,101.344 56.351,102.677 53.5,103.5C 53.8333,102.167 54.1667,100.833 54.5,99.5C 55.5,99.1667 56.1667,98.5 56.5,97.5C 58.3464,97.7778 59.6798,97.1112 60.5,95.5C 59.1851,93.6841 57.6851,92.0175 56,90.5C 55.4677,87.7365 54.6343,85.0698 53.5,82.5C 52.3112,81.5713 50.9778,81.238 49.5,81.5C 49.5,81.1667 49.5,80.8333 49.5,80.5C 51.0141,77.4161 52.8475,77.0828 55,79.5C 56.9426,84.3466 59.4426,88.8466 62.5,93C 62.0245,94.7633 61.3578,96.43 60.5,98C 62.9485,99.793 65.2818,101.626 67.5,103.5 Z"/></g>
<g><path style="opacity:1" fill="#0d0101" d="M 32.5,48.5 C 33.8327,61.871 35.1661,75.2044 36.5,88.5C 37.1351,92.6208 38.3018,96.6208 40,100.5C 42.1962,103.125 45.0295,104.125 48.5,103.5C 49.3121,104.993 50.6455,105.66 52.5,105.5C 54.2073,105.272 55.874,104.938 57.5,104.5C 58.5,104.5 59.5,104.5 60.5,104.5C 60.7852,106.288 60.4519,107.955 59.5,109.5C 56.8971,108.438 54.2305,108.272 51.5,109C 55.5084,109.49 56.1751,110.99 53.5,113.5C 52.7964,116.704 52.1298,119.871 51.5,123C 54.268,124.762 55.768,127.262 56,130.5C 56.956,131.894 58.2894,132.561 60,132.5C 64.2534,130.68 68.0867,131.18 71.5,134C 74.2305,134.728 76.8971,134.562 79.5,133.5C 82.5354,135.301 85.8687,135.968 89.5,135.5C 71.4366,139.487 54.7699,136.153 39.5,125.5C 38.8133,123.726 37.9799,122.059 37,120.5C 36.9935,114.024 36.1601,107.69 34.5,101.5C 36.1329,99.6128 35.7996,98.1128 33.5,97C 33.7845,95.0438 33.7845,92.8771 33.5,90.5C 32.1667,90.5 30.8333,90.5 29.5,90.5C 29.7529,88.1727 29.0863,86.1727 27.5,84.5C 27.8333,83.1667 28.1667,81.8333 28.5,80.5C 26.3052,74.361 24.6385,68.0277 23.5,61.5C 25.0174,61.4894 26.1841,60.8228 27,59.5C 26.4461,55.8749 26.6128,52.2082 27.5,48.5C 29.1667,48.5 30.8333,48.5 32.5,48.5 Z"/></g>
<g><path style="opacity:1" fill="#940d03" d="M 40.5,96.5 C 42.3838,97.3816 43.7171,98.8816 44.5,101C 46.556,101.311 48.556,101.811 50.5,102.5C 51.4287,101.311 51.762,99.9778 51.5,98.5C 52.391,99.1098 53.391,99.4431 54.5,99.5C 54.1667,100.833 53.8333,102.167 53.5,103.5C 51.8333,103.5 50.1667,103.5 48.5,103.5C 44.0317,103.372 41.365,101.039 40.5,96.5 Z"/></g>
<g><path style="opacity:1" fill="#720603" d="M 63.5,103.5 C 61.0993,101.938 59.0993,102.271 57.5,104.5C 55.874,104.938 54.2073,105.272 52.5,105.5C 50.6455,105.66 49.3121,104.993 48.5,103.5C 50.1667,103.5 51.8333,103.5 53.5,103.5C 56.351,102.677 59.0177,101.344 61.5,99.5C 62.7051,100.577 63.3718,101.91 63.5,103.5 Z"/></g>
<g><path style="opacity:1" fill="#190100" d="M 63.5,103.5 C 65.8208,106.796 68.1542,110.129 70.5,113.5C 71.5009,114.789 71.3342,116.122 70,117.5C 69.3333,121.833 69.3333,126.167 70,130.5C 70.8333,131.333 71.6667,132.167 72.5,133C 79.1005,132.944 85.7671,133.11 92.5,133.5C 91.7095,134.401 90.7095,135.068 89.5,135.5C 85.8687,135.968 82.5354,135.301 79.5,133.5C 76.8971,134.562 74.2305,134.728 71.5,134C 68.0867,131.18 64.2534,130.68 60,132.5C 58.2894,132.561 56.956,131.894 56,130.5C 55.768,127.262 54.268,124.762 51.5,123C 52.1298,119.871 52.7964,116.704 53.5,113.5C 56.1751,110.99 55.5084,109.49 51.5,109C 54.2305,108.272 56.8971,108.438 59.5,109.5C 60.4519,107.955 60.7852,106.288 60.5,104.5C 59.5,104.5 58.5,104.5 57.5,104.5C 59.0993,102.271 61.0993,101.938 63.5,103.5 Z"/></g>
<g><path style="opacity:1" fill="#fc6a02" d="M 78.5,95.5 C 79.4959,95.4142 80.3292,95.7476 81,96.5C 81.6667,100.833 81.6667,105.167 81,109.5C 79.769,110.108 78.4357,110.441 77,110.5C 74.761,109.909 72.5943,109.242 70.5,108.5C 68.7497,107.341 67.7497,105.674 67.5,103.5C 67.5,103.167 67.5,102.833 67.5,102.5C 71.8533,102.235 76.1866,101.735 80.5,101C 78.8446,99.5557 78.178,97.7224 78.5,95.5 Z"/></g>
<g><path style="opacity:1" fill="#790a03" d="M 82.5,86.5 C 83.4767,89.2869 83.81,92.2869 83.5,95.5C 82.8872,101.271 83.5539,106.604 85.5,111.5C 85.3893,112.117 85.056,112.617 84.5,113C 85.7932,113.49 87.1266,113.657 88.5,113.5C 85.0381,114.482 81.3714,114.815 77.5,114.5C 76.209,114.737 75.209,114.404 74.5,113.5C 77.6981,114.036 80.3647,113.369 82.5,111.5C 82.5,103.167 82.5,94.8333 82.5,86.5 Z"/></g>
<g><path style="opacity:1" fill="#580000" d="M 113.5,120.5 C 112.139,122.527 110.473,124.194 108.5,125.5C 106.5,125.5 104.5,125.5 102.5,125.5C 103.077,122.45 101.91,120.45 99,119.5C 98.1386,116.006 99.4719,113.673 103,112.5C 104.229,114.947 105.729,115.113 107.5,113C 108.665,107.751 111.665,106.251 116.5,108.5C 116.431,112.776 115.431,116.776 113.5,120.5 Z"/></g>
<g><path style="opacity:1" fill="#410001" d="M 98.5,94.5 C 98.3342,99.1785 98.5008,103.845 99,108.5C 99.2835,106.114 100.284,105.448 102,106.5C 105.788,103.178 110.288,101.512 115.5,101.5C 115.924,104.354 116.924,107.021 118.5,109.5C 117.948,111.003 117.948,112.669 118.5,114.5C 117.299,116.909 115.633,118.909 113.5,120.5C 115.431,116.776 116.431,112.776 116.5,108.5C 111.665,106.251 108.665,107.751 107.5,113C 105.729,115.113 104.229,114.947 103,112.5C 99.4719,113.673 98.1386,116.006 99,119.5C 101.91,120.45 103.077,122.45 102.5,125.5C 104.5,125.5 106.5,125.5 108.5,125.5C 105.25,128.64 101.25,130.307 96.5,130.5C 94.5,130.833 92.5,131.167 90.5,131.5C 90.8947,124.633 89.3947,123.966 86,129.5C 84.8419,129.002 84.0085,128.169 83.5,127C 83.8183,123.273 83.8183,119.44 83.5,115.5C 81.2646,115.795 79.2646,115.461 77.5,114.5C 81.3714,114.815 85.0381,114.482 88.5,113.5C 91.1386,111.844 93.8053,110.178 96.5,108.5C 97.1669,103.683 97.8335,99.0166 98.5,94.5 Z"/></g>
<g><path style="opacity:1" fill="#2c0100" d="M 70.5,113.5 C 71.8333,113.5 73.1667,113.5 74.5,113.5C 75.209,114.404 76.209,114.737 77.5,114.5C 79.2646,115.461 81.2646,115.795 83.5,115.5C 83.8183,119.44 83.8183,123.273 83.5,127C 84.0085,128.169 84.8419,129.002 86,129.5C 89.3947,123.966 90.8947,124.633 90.5,131.5C 92.5,131.167 94.5,130.833 96.5,130.5C 96.3059,132.912 94.9726,133.912 92.5,133.5C 85.7671,133.11 79.1005,132.944 72.5,133C 71.6667,132.167 70.8333,131.333 70,130.5C 69.3333,126.167 69.3333,121.833 70,117.5C 71.3342,116.122 71.5009,114.789 70.5,113.5 Z"/></g>
</svg>
